<svg width="24" height="24" viewBox="0 0 24 24" fill="none" xmlns="http://www.w3.org/2000/svg">
<path d="M12.0017 22.7505C11.4017 22.7505 10.8117 22.6105 10.3317 22.3405L5.60172 19.6105C3.64172 18.2905 3.51172 18.0505 3.51172 15.9805V11.0205C3.51172 8.95055 3.64172 8.71055 5.56172 7.42055L10.3417 4.66055C11.2917 4.11055 12.7217 4.11055 13.6717 4.66055L18.4017 7.39055C20.3617 8.71055 20.4917 8.95055 20.4917 11.0205V15.9805C20.4917 18.0505 20.3617 18.2905 18.4417 19.5805L13.6617 22.3405C13.1917 22.6205 12.5917 22.7505 12.0017 22.7505ZM12.0017 5.75055C11.6617 5.75055 11.3217 5.82055 11.0817 5.96055L6.35172 8.69055C5.01172 9.60055 5.01172 9.60055 5.01172 11.0205V15.9805C5.01172 17.4005 5.01172 17.4005 6.40172 18.3405L11.0917 21.0405C11.5717 21.3205 12.4417 21.3205 12.9217 21.0405L17.6517 18.3105C18.9917 17.4005 18.9917 17.4005 18.9917 15.9805V11.0205C18.9917 9.60055 18.9917 9.60055 17.6017 8.66055L12.9117 5.96055C12.6817 5.82055 12.3417 5.75055 12.0017 5.75055Z" fill="#5D6679"/>
<path d="M17.5 8.38C17.09 8.38 16.75 8.04 16.75 7.63V5C16.75 3.42 16.08 2.75 14.5 2.75H9.5C7.92 2.75 7.25 3.42 7.25 5V7.56C7.25 7.97 6.91 8.31 6.5 8.31C6.09 8.31 5.75 7.98 5.75 7.56V5C5.75 2.58 7.08 1.25 9.5 1.25H14.5C16.92 1.25 18.25 2.58 18.25 5V7.63C18.25 8.04 17.91 8.38 17.5 8.38Z" fill="#5D6679"/>
<path d="M13.6283 17.6291C13.4183 17.6291 13.1983 17.5891 12.9783 17.4991L11.9983 17.1191L11.0183 17.5091C10.4883 17.7191 9.94828 17.6691 9.54828 17.3791C9.14828 17.0891 8.93828 16.5891 8.96828 16.0191L9.02828 14.9691L8.35828 14.1591C7.99828 13.7091 7.87828 13.1891 8.03828 12.7091C8.18828 12.2391 8.59828 11.8791 9.14828 11.7391L10.1683 11.4791L10.7383 10.5891C11.3483 9.62914 12.6583 9.62914 13.2683 10.5891L13.8383 11.4791L14.8583 11.7391C15.4083 11.8791 15.8183 12.2391 15.9683 12.7091C16.1183 13.1791 15.9983 13.7091 15.6383 14.1491L14.9683 14.9591L15.0283 16.0091C15.0583 16.5791 14.8483 17.0691 14.4483 17.3691C14.2083 17.5391 13.9283 17.6291 13.6283 17.6291ZM9.51828 13.1991L10.1883 14.0091C10.4183 14.2791 10.5483 14.7091 10.5283 15.0591L10.4683 16.1091L11.4483 15.7191C11.7783 15.5891 12.2183 15.5891 12.5483 15.7191L13.5283 16.1091L13.4683 15.0591C13.4483 14.7091 13.5783 14.2891 13.8083 14.0091L14.4783 13.1991L13.4583 12.9391C13.1183 12.8491 12.7583 12.5891 12.5683 12.2991L12.0083 11.4191L11.4383 12.2991C11.2483 12.5991 10.8883 12.8591 10.5483 12.9491L9.51828 13.1991Z" fill="#5D6679"/>
</svg>
