<svg width="20" height="20" viewBox="0 0 20 20" fill="none" xmlns="http://www.w3.org/2000/svg">
<path d="M14.1667 2.50004H17.5001C17.7211 2.50004 17.9331 2.58784 18.0893 2.74412C18.2456 2.9004 18.3334 3.11236 18.3334 3.33337V16.6667C18.3334 16.8877 18.2456 17.0997 18.0893 17.256C17.9331 17.4122 17.7211 17.5 17.5001 17.5H2.50008C2.27907 17.5 2.06711 17.4122 1.91083 17.256C1.75455 17.0997 1.66675 16.8877 1.66675 16.6667V3.33337C1.66675 3.11236 1.75455 2.9004 1.91083 2.74412C2.06711 2.58784 2.27907 2.50004 2.50008 2.50004H5.83342V0.833374H7.50008V2.50004H12.5001V0.833374H14.1667V2.50004ZM12.5001 4.16671H7.50008V5.83337H5.83342V4.16671H3.33341V7.50004H16.6667V4.16671H14.1667V5.83337H12.5001V4.16671ZM16.6667 9.16671H3.33341V15.8334H16.6667V9.16671ZM5.00008 11.6667H6.66675V13.3334H5.00008V11.6667ZM8.33342 11.6667H15.0001V13.3334H8.33342V11.6667Z" fill="#8D93A5"/>
</svg>
