<svg width="8" height="5" viewBox="0 0 8 5" fill="none" xmlns="http://www.w3.org/2000/svg">
<path d="M4 4.33789C3.91797 4.33789 3.84277 4.32194 3.77441 4.29004C3.70605 4.25814 3.64453 4.21484 3.58984 4.16016L0.677734 1.24805C0.623047 1.19336 0.582031 1.13184 0.554688 1.06348C0.527344 0.995117 0.513672 0.919922 0.513672 0.837891C0.513672 0.682943 0.570638 0.548503 0.68457 0.43457C0.798503 0.320638 0.932943 0.263672 1.08789 0.263672C1.16992 0.263672 1.24512 0.277344 1.31348 0.304688C1.38184 0.332031 1.44336 0.373047 1.49805 0.427734L4 2.92969L6.50195 0.427734C6.55664 0.373047 6.61816 0.332031 6.68652 0.304688C6.75488 0.277344 6.83008 0.263672 6.91211 0.263672C7.06706 0.263672 7.2015 0.320638 7.31543 0.43457C7.42936 0.548503 7.48633 0.682943 7.48633 0.837891C7.48633 0.919922 7.47266 0.995117 7.44531 1.06348C7.41797 1.13184 7.37695 1.19336 7.32227 1.24805L4.41016 4.16016C4.35547 4.21484 4.29395 4.25814 4.22559 4.29004C4.15723 4.32194 4.08203 4.33789 4 4.33789Z" fill="#526484"/>
</svg>
