<svg width="20" height="22" viewBox="0 0 20 22" fill="none" xmlns="http://www.w3.org/2000/svg">
<path d="M17.875 5.26959C18.2187 5.46505 18.5041 5.74856 18.7018 6.09095C18.8995 6.43333 19.0025 6.82222 19 7.21759V14.5016C19 15.3106 18.557 16.0566 17.842 16.4496L11.092 20.7196C10.7574 20.9033 10.3818 20.9996 10 20.9996C9.61824 20.9996 9.24264 20.9033 8.908 20.7196L2.158 16.4496C1.80817 16.2584 1.51612 15.9768 1.31241 15.6341C1.1087 15.2914 1.0008 14.9003 1 14.5016V7.21659C1 6.40759 1.443 5.66259 2.158 5.26959L8.908 1.28959C9.25254 1.09963 9.63956 1 10.033 1C10.4264 1 10.8135 1.09963 11.158 1.28959L17.908 5.26959H17.875Z" stroke="#5D6679" stroke-width="1.5" stroke-linecap="round" stroke-linejoin="round"/>
<path d="M7 11C7 11.7956 7.31607 12.5587 7.87868 13.1213C8.44129 13.6839 9.20435 14 10 14C10.7956 14 11.5587 13.6839 12.1213 13.1213C12.6839 12.5587 13 11.7956 13 11C13 10.2044 12.6839 9.44129 12.1213 8.87868C11.5587 8.31607 10.7956 8 10 8C9.20435 8 8.44129 8.31607 7.87868 8.87868C7.31607 9.44129 7 10.2044 7 11Z" stroke="#5D6679" stroke-width="1.5" stroke-linecap="round" stroke-linejoin="round"/>
</svg>
