<svg width="24" height="20" viewBox="0 0 24 20" fill="none" xmlns="http://www.w3.org/2000/svg">
<path d="M6 6.23828C5.86739 6.23828 5.74021 6.29096 5.64645 6.38473C5.55268 6.4785 5.5 6.60567 5.5 6.73828V7.82422C5.5 7.95683 5.55268 8.084 5.64645 8.17777C5.74021 8.27154 5.86739 8.32422 6 8.32422C6.13261 8.32422 6.25979 8.27154 6.35355 8.17777C6.44732 8.084 6.5 7.95683 6.5 7.82422V6.73828C6.5 6.60567 6.44732 6.4785 6.35355 6.38473C6.25979 6.29096 6.13261 6.23828 6 6.23828Z" fill="#5D6679"/>
<path d="M6 8.95312C5.86739 8.95312 5.74021 9.0058 5.64645 9.09957C5.55268 9.19334 5.5 9.32052 5.5 9.45312V10.5391C5.5 10.6717 5.55268 10.7988 5.64645 10.8926C5.74021 10.9864 5.86739 11.0391 6 11.0391C6.13261 11.0391 6.25979 10.9864 6.35355 10.8926C6.44732 10.7988 6.5 10.6717 6.5 10.5391V9.45312C6.5 9.32052 6.44732 9.19334 6.35355 9.09957C6.25979 9.0058 6.13261 8.95312 6 8.95312Z" fill="#5D6679"/>
<path d="M6 11.6699C5.86739 11.6699 5.74021 11.7226 5.64645 11.8164C5.55268 11.9101 5.5 12.0373 5.5 12.1699V13.2559C5.5 13.3885 5.55268 13.5156 5.64645 13.6094C5.74021 13.7032 5.86739 13.7559 6 13.7559C6.13261 13.7559 6.25979 13.7032 6.35355 13.6094C6.44732 13.5156 6.5 13.3885 6.5 13.2559V12.1699C6.5 12.0373 6.44732 11.9101 6.35355 11.8164C6.25979 11.7226 6.13261 11.6699 6 11.6699Z" fill="#5D6679"/>
<path d="M4.03312 -0.00195312C3.41995 0.0493867 2.86132 0.45805 2.65739 1.07457L1.95616 3.19163C1.10119 3.26313 0.417969 3.98109 0.417969 4.8532V6.94764C0.418137 7.17606 0.565571 7.37831 0.78298 7.44837C1.43972 7.66033 1.99706 8.48541 1.99728 9.49552C1.99737 10.5059 1.43993 11.3317 0.78298 11.5437C0.565571 11.6137 0.418137 11.816 0.417969 12.0444V15.1907C0.417969 16.1095 1.1741 16.8656 2.0929 16.8656H10.4038L19.342 19.9173C20.1671 20.1991 21.0699 19.7379 21.3418 18.9159L22.0245 16.8533C22.8882 16.7908 23.5812 16.0691 23.5812 15.1907V12.0434C23.5811 11.815 23.4336 11.6127 23.2162 11.5427C22.5595 11.3307 22.0021 10.5056 22.0019 9.49552C22.0018 8.48509 22.5593 7.65937 23.2162 7.44735C23.4336 7.37729 23.5811 7.17503 23.5812 6.94661V4.8532C23.5812 3.93439 22.8251 3.17826 21.9063 3.17826H13.5974L4.66031 0.0731054C4.45341 0.000649126 4.22789 0.00980886 4.03312 -0.00195312ZM4.11023 1.0427C4.1785 1.03804 4.24972 1.04702 4.32101 1.07046C6.34319 1.77265 8.36526 2.47556 10.3874 3.17826H3.06969L3.65679 1.40462C3.72755 1.19074 3.90542 1.05666 4.11023 1.0427ZM2.0929 4.23114H5.15591V4.73187C5.15591 5.02262 5.3916 5.25831 5.68234 5.25831C5.97309 5.25831 6.20878 5.02262 6.20878 4.73187V4.23114H21.9063C22.2601 4.23114 22.5283 4.49937 22.5283 4.8532V6.64535C21.5561 7.15758 20.9489 8.2615 20.949 9.49552C20.9493 10.7291 21.5564 11.8326 22.5283 12.3447V15.1907C22.5283 15.5445 22.2601 15.8128 21.9063 15.8128H6.20776C6.21037 15.6311 6.20878 15.4441 6.20878 15.2606C6.20878 14.9699 5.97309 14.7342 5.68234 14.7342C5.3916 14.7342 5.15591 14.9699 5.15591 15.2606C5.15485 15.4433 5.15635 15.6322 5.15696 15.8128H2.09293C1.739 15.8128 1.47084 15.5445 1.47084 15.1907V12.3457C2.44311 11.8334 3.05027 10.7295 3.05016 9.49552C3.04988 8.26189 2.44284 7.15841 1.47084 6.64638V4.8532C1.47084 4.49937 1.73907 4.23114 2.0929 4.23114ZM13.6622 16.8656H20.911L20.3424 18.5848C20.248 18.8703 19.9612 19.0162 19.6823 18.921L13.6622 16.8656Z" fill="#5D6679"/>
<path d="M16.3809 10.7793C17.2709 10.7793 18.0029 11.5113 18.0029 12.4014C18.0029 13.2914 17.2709 14.0244 16.3809 14.0244C15.4908 14.0244 14.7578 13.2914 14.7578 12.4014C14.7578 11.5113 15.4908 10.7793 16.3809 10.7793ZM16.3809 11.7793C16.0312 11.7793 15.7578 12.0517 15.7578 12.4014C15.7578 12.751 16.0312 13.0244 16.3809 13.0244C16.7305 13.0244 17.0029 12.751 17.0029 12.4014C17.0029 12.0517 16.7305 11.7793 16.3809 11.7793Z" fill="#5D6679"/>
<path d="M11.6191 6.01758C12.5092 6.01758 13.2412 6.74958 13.2412 7.63965C13.2412 8.52971 12.5092 9.26172 11.6191 9.26172C10.7291 9.26172 9.99609 8.52971 9.99609 7.63965C9.99609 6.74958 10.7291 6.01758 11.6191 6.01758ZM11.6191 7.01758C11.2695 7.01758 10.9961 7.29002 10.9961 7.63965C10.9961 7.98927 11.2695 8.26172 11.6191 8.26172C11.9688 8.26172 12.2412 7.98927 12.2412 7.63965C12.2412 7.29002 11.9688 7.01758 11.6191 7.01758Z" fill="#5D6679"/>
<path d="M16.0253 7.286L11.2636 12.0477C11.0684 12.243 11.0684 12.5595 11.2636 12.7547C11.4588 12.95 11.7754 12.95 11.9706 12.7547L16.7323 7.99303C16.9276 7.79778 16.9276 7.48125 16.7323 7.286C16.5281 7.10441 16.2179 7.08537 16.0253 7.286Z" fill="#5D6679"/>
</svg>
